<svg width="100%" viewBox="0 0 730 410" role="img" xmlns="http://www.w3.org/2000/svg">
  <title>Doctor loyalty tracking management project thumbnail</title>
  <desc>Dark healthcare loyalty dashboard thumbnail with rewards and transaction cards</desc>
  <rect width="680" height="400" fill="#0a0a0f" rx="12"/>
  <defs>
    <pattern id="loyaltyDots" x="0" y="0" width="28" height="28" patternUnits="userSpaceOnUse">
      <circle cx="1" cy="1" r="1" fill="#ffffff" opacity="0.06"/>
    </pattern>
  </defs>
  <rect width="680" height="400" fill="url(#loyaltyDots)" rx="12"/>
  <rect x="0" y="0" width="680" height="3" fill="#ff5a00" rx="2"/>
  <text x="40" y="55" font-family="monospace" font-size="11" fill="#ff5a00" letter-spacing="2">HEALTHCARE CRM</text>
  <text x="40" y="118" font-family="'Arial Black', sans-serif" font-size="38" fill="#ffffff" font-weight="900">Doctor Loyalty</text>
  <text x="40" y="150" font-family="monospace" font-size="13" fill="#9ca3af">React / Node.js / Express / MongoDB</text>
  <rect x="40" y="190" width="154" height="92" fill="#ffffff" fill-opacity="0.04" stroke="#ff5a00" stroke-opacity="0.35" rx="12"/>
  <circle cx="76" cy="230" r="22" fill="#ff5a00" fill-opacity="0.16" stroke="#ff5a00" stroke-opacity="0.5"/>
  <text x="120" y="224" font-family="'Arial Black', sans-serif" font-size="20" fill="#ff5a00">2,450</text>
  <text x="120" y="246" font-family="monospace" font-size="10" fill="#9ca3af">reward points</text>
  <rect x="214" y="190" width="154" height="92" fill="#ffffff" fill-opacity="0.04" stroke="#ff5a00" stroke-opacity="0.35" rx="12"/>
  <text x="244" y="224" font-family="'Arial Black', sans-serif" font-size="20" fill="#ff5a00">18</text>
  <text x="244" y="246" font-family="monospace" font-size="10" fill="#9ca3af">transactions</text>
  <rect x="388" y="190" width="154" height="92" fill="#ffffff" fill-opacity="0.04" stroke="#ff5a00" stroke-opacity="0.35" rx="12"/>
  <text x="418" y="224" font-family="'Arial Black', sans-serif" font-size="20" fill="#ff5a00">Active</text>
  <text x="418" y="246" font-family="monospace" font-size="10" fill="#9ca3af">program status</text>
  <rect x="40" y="312" width="500" height="36" fill="#ffffff" fill-opacity="0.03" stroke="#ffffff" stroke-opacity="0.1" rx="8"/>
  <rect x="60" y="326" width="92" height="8" fill="#ffffff" fill-opacity="0.12" rx="4"/>
  <rect x="184" y="326" width="74" height="8" fill="#ff5a00" fill-opacity="0.3" rx="4"/>
  <rect x="294" y="326" width="104" height="8" fill="#ffffff" fill-opacity="0.12" rx="4"/>
  <rect x="430" y="322" width="72" height="16" fill="#ff5a00" fill-opacity="0.12" stroke="#ff5a00" stroke-opacity="0.35" rx="8"/>
  <text x="590" y="118" text-anchor="middle" font-family="'Arial Black', sans-serif" font-size="64" fill="#ff5a00" opacity="0.2">+</text>
  <text x="40" y="378" font-family="monospace" font-size="12" fill="#ffffff" opacity="0.55">deployed app + GitHub source</text>
</svg>
